<?xml version="1.0" standalone="no"?>
<!DOCTYPE svg PUBLIC "-//W3C//DTD SVG 20010904//EN"
 "http://www.w3.org/TR/2001/REC-SVG-20010904/DTD/svg10.dtd">
<svg version="1.0" xmlns="http://www.w3.org/2000/svg"
 width="700.000000pt" height="700.000000pt" viewBox="0 0 700.000000 700.000000"
 preserveAspectRatio="xMidYMid meet">
<metadata>
Created by potrace 1.11, written by Peter Selinger 2001-2013
</metadata>
<g transform="translate(0.000000,700.000000) scale(0.100000,-0.100000)"
fill="#000000" stroke="none">
<path d="M0 3500 l0 -3500 3500 0 3500 0 0 3500 0 3500 -3500 0 -3500 0 0
-3500z m3251 1744 c140 -188 218 -302 215 -311 -8 -19 -249 -352 -256 -352 -3
0 -90 116 -195 259 l-190 259 -513 1 -513 0 54 -72 c29 -40 404 -545 831
-1123 428 -577 780 -1055 783 -1062 5 -13 -242 -353 -257 -353 -7 0 -2250
3022 -2258 3042 -2 4 465 8 1037 8 l1041 0 221 -296z m2927 283 c-4 -18 -1458
-1987 -1466 -1987 -10 1 -257 335 -257 348 0 7 196 278 435 603 239 325 437
595 438 600 2 5 -211 9 -501 9 l-505 0 -579 -780 c-318 -428 -582 -778 -587
-776 -6 1 -67 79 -137 174 l-128 171 591 803 c325 442 600 813 611 826 l20 22
1034 0 c846 0 1034 -2 1031 -13z m-1116 -2732 c607 -820 1108 -1496 1112
-1503 6 -9 -221 -12 -1036 -12 l-1043 1 -213 290 -214 290 131 174 c72 96 133
175 136 175 3 0 89 -112 191 -250 l186 -250 504 0 c333 0 504 3 504 10 0 6
-343 473 -762 1038 -419 565 -790 1066 -825 1114 l-64 87 132 176 c107 142
135 174 145 163 6 -7 509 -684 1116 -1503z m-2444 220 l80 -110 -18 -25 c-10
-14 -208 -279 -439 -590 -231 -311 -421 -568 -421 -572 0 -5 226 -8 503 -8
l503 0 344 463 c190 254 451 605 581 779 l237 318 131 -179 c72 -99 131 -182
131 -185 0 -4 -270 -371 -601 -816 l-601 -810 -1039 0 c-571 0 -1039 3 -1039
6 0 3 329 451 731 995 l732 989 52 -72 c29 -40 89 -122 133 -183z"/>
</g>
</svg>
