<svg xmlns="http://www.w3.org/2000/svg" xmlns:xlink="http://www.w3.org/1999/xlink" preserveAspectRatio="xMidYMid meet" width="650" height="250"><style><![CDATA[.B{fill-opacity:0}.C{stroke:#000}.D{stroke-opacity:0}.E{fill:#00c1de}]]></style><defs><path d="M115.95 133.1h1.3V30.73h14.47V150h-23.44L54.2 63.7 45.9 48.02h-1.37V150H30.05V30.73h23.27l54.3 86.38 8.32 16z" id="A"/><path d="M158.54 150V30.73h82.66V45.2h-65.53v34.6h53.57v14.14h-53.57v41.62h65.53V150h-82.66z" id="B"/><path d="M513.77 30.73V98.6c0 18.83-2.5 30.46-14.3 40.73-8.97 8.32-21.8 12.12-33.77 12.12-12.85 0-25.62-4.12-34.9-12.12C418.82 129 416.3 112.5 416.3 98.2V30.65h17.13v68.93c0 11.3.8 20.6 6.63 27.3 6.14 7.84 16.8 10.83 26.1 10.83 10.02 0 18.5-2.5 26.26-10.83 6.8-8.32 6.8-18.1 6.8-27.3V30.73h14.55z" id="C"/><path d="M535.67 129.23c11.3 4.7 22.95 7.84 35.63 7.84 6.47 0 14.47-1.3 21.17-4.68 6.3-3.16 11-8.65 11-17.3 0-10.18-11.3-14.62-20.28-17.3-8.16-2.34-16.48-4.36-24.8-7.5-12.6-4.85-24.48-12.85-24.48-28.3 0-11.63 5.17-19.96 12.85-25.3 7.67-5 17.94-7.52 28.12-7.52 13.66 0 27.3 3.64 40.4 10.2l-4.85 13.8-1.13.65c-9.6-6.63-21.98-10.34-34.58-10.34-6.63 0-12.6.97-17.13 3.63-4.53 2.67-7.36 6.63-7.36 12.13 0 8.48 7.84 12.44 15.68 15.1 9.3 3 19.3 4.84 29.4 8.97 6.47 2.66 12.6 5.98 17.3 11 4.68 5.17 7.35 12.44 7.35 20.12 0 11.3-5.82 21.82-15.84 28.12-9.3 5.98-21.33 8.64-32.65 8.64-13.8 0-27.63-2.82-41.77-7.67l4.85-13.66 1.13-.65z" id="D"/><path d="M38.13 185.72h.73c.32 0 .56.16.73.4l9.53 20.45h.16l9.54-20.45c.16-.24.32-.4.73-.4h.72c.5 0 .73.32.8.65l5.1 29.1c.16.56-.24.97-.8.97H61.4c-.4 0-.72-.33-.8-.65l-2.6-16.4h-.16l-7.6 16.97c-.08.24-.32.48-.72.48h-.8c-.4 0-.57-.24-.73-.48l-7.68-16.97h-.16l-2.5 16.4c-.08.32-.4.65-.8.65h-3.88c-.57 0-.9-.4-.8-.97l5.17-29.1c.22-.43.5-.65.8-.65z" id="E"/><path d="M96.9 185.65h.05l.05.02.05.01.16.08.06.06.04.03.03.03.02.03.03.04.03.03.02.04.03.03.02.04.03.03 13.36 29.18v.08l.02.1.01.08v.08l-.01.08-.01.07-.03.08-.03.07-.03.06-.04.06-.05.06-.12.1-.07.04-.07.03-.08.03-.08.02-.1.01-.1.01h-3.8l-.1-.01h-.1l-.1-.01-.08-.01-.08-.02-.07-.02-.14-.06-.18-.12-.06-.05-.06-.06-.1-.12-.05-.07-.1-.16-.1-.18-2.1-4.7H90l-2.13 4.75-.06.12-.04.06-.04.07-.04.06-.05.06-.06.05-.05.06-.07.05-.06.05-.07.05-.08.04-.07.04-.27.1-.3.03h-3.8l-.14-.02-.07-.02-.12-.06-.05-.04-.1-.1-.08-.12-.03-.06-.02-.07v-.08l-.01-.07-.01-.08v-.08l.01-.08.02-.1.02-.08.03-.1 13.42-29.1.02-.03.03-.04.02-.03.03-.04.02-.03.03-.04.15-.15.16-.08.05-.01.05-.02h.05l.06-.01h.52l.05.01zm-4.72 20.43h8.73l-4.36-9.53h-.17l-4.2 9.53z" id="F"/><path d="M128.88 209.48c.32-.57 1.05-.57 1.45-.33.25.17 3.72 2.67 6.55 2.67 2.26 0 3.96-1.45 3.96-3.3 0-2.18-1.86-3.72-5.5-5.17-4.04-1.62-8.16-4.2-8.16-9.38 0-3.88 2.83-8.32 9.7-8.32 4.44 0 7.76 2.26 8.65 2.9.4.24.56.97.24 1.45l-1.62 2.5c-.32.48-.97.9-1.53.48-.33-.24-3.64-2.34-5.98-2.34-2.43 0-3.8 1.62-3.8 3 0 2.02 1.6 3.4 5.1 4.85 4.2 1.7 9.05 4.2 9.05 9.78 0 4.44-3.88 8.56-9.94 8.56-5.4 0-8.65-2.58-9.53-3.4-.33-.4-.57-.57-.17-1.3l1.54-2.66z" id="G"/><path d="M166.62 209.48c.32-.57 1.05-.57 1.45-.33.24.17 3.72 2.67 6.55 2.67 2.26 0 3.96-1.45 3.96-3.3 0-2.18-1.86-3.72-5.5-5.17-4.04-1.62-8.16-4.2-8.16-9.38 0-3.88 2.83-8.32 9.7-8.32 4.44 0 7.75 2.26 8.64 2.9.4.24.57.97.25 1.45-.17.25-1.46 2.26-1.62 2.5-.32.48-.97.9-1.54.48-.32-.24-3.63-2.34-5.98-2.34-2.42 0-3.8 1.62-3.8 3 0 2.02 1.6 3.4 5.1 4.85 4.2 1.7 9.05 4.2 9.05 9.78 0 4.44-3.88 8.56-9.94 8.56-5.42 0-8.65-2.58-9.54-3.4-.32-.4-.56-.57-.16-1.3l1.54-2.66z" id="H"/><path d="M215.3 185.65h.05l.05.02.04.01.05.02.08.04.03.02.04.03.12.12.02.04.03.03.03.04.02.03.02.04.03.03 13.36 29.18.03.08v.1l.01.08v.08l-.01.08v.07l-.02.08-.03.07-.08.12-.05.06-.12.1-.06.04-.16.06-.08.02-.18.02h-3.8l-.1-.01h-.1l-.16-.02-.16-.04-.07-.03-.06-.03-.07-.04-.12-.08-.06-.05-.05-.06-.06-.06-.05-.06-.05-.07-.1-.16-.1-.18-2.1-4.7H208.4l-2.1 4.7-.02.06-.03.06-.04.06-.03.06-.05.07-.04.06-.05.06-.1.1-.06.05-.14.1-.07.04-.08.04-.08.03-.18.06-.2.02-.1.01h-3.8l-.14-.02-.06-.02-.07-.03-.05-.03-.06-.04-.1-.1-.04-.06-.06-.12-.03-.07-.02-.08-.01-.07-.01-.08.01-.08v-.08l.02-.1.02-.08.04-.1 13.43-29.12.03-.04.02-.03.03-.04.03-.03.02-.04.12-.12.04-.03.03-.02.08-.04.05-.02.04-.01.05-.02h.05l.06-.01h.52l.06.01zm-4.72 20.43h8.72l-4.36-9.53h-.16l-4.2 9.53z" id="I"/><path d="M271.26 189.68c.33.32.4.9.08 1.2l-2.66 2.83c-.33.32-.73.32-1.13 0-1.86-1.62-4.13-2.5-6.55-2.5-5.4 0-9.7 4.6-9.7 10.02 0 5.34 4.3 9.94 9.7 9.94 2.42 0 4.28-.72 5.17-1.05v-3.63h-3.47c-.5 0-.8-.33-.8-.8v-3.48c0-.48.32-.8.8-.8h8.32c.4 0 .8.4.8.8v11.08c0 .32-.16.56-.32.72 0 0-4.45 2.83-10.75 2.83-8.57 0-15.52-6.87-15.52-15.5 0-8.65 6.8-15.68 15.44-15.68 3.88 0 7.6 1.53 10.58 4.04z" id="J"/><path d="M293.16 186.12h17.62a.82.82 0 0 1 .81.81v3.56a.82.82 0 0 1-.81.81H298v7.1h10.67c.4 0 .8.4.8.8v3.56c0 .5-.4.8-.8.8H298v7.6h12.77a.82.82 0 0 1 .81.81v3.56a.82.82 0 0 1-.81.81h-17.62a.82.82 0 0 1-.81-.81v-28.6c.22-.54.5-.8.8-.8z" id="K"/><path d="M365.45 185.78l.57.08.54.1.53.14.5.16.5.2.46.22.45.24.42.27.4.28.37.3.35.33.32.35.3.36.27.38.23.4.2.42.18.42.15.44.1.45.1.47.05.47.01.48-.02.55-.06.52-.1.5-.14.5-.17.47-.2.46-.23.43-.25.42-.26.4-.3.38-.3.36-.3.33-.3.32-.3.3-.3.28-.3.26-.28.24-.28.22-.25.2-.24.18-.2.17-.2.14-.15.12-.12.1 5 5 .1-.18.1-.17.1-.18.32-.76.08-.2.07-.2.08-.2.06-.2.07-.2.07-.2.06-.2.06-.2.05-.2.06-.2.05-.2.05-.2.08-.42.04-.2.04-.2.03-.2.02-.1.04-.2.03-.1.03-.1.1-.24.04-.07.04-.06.05-.06.05-.05.12-.08.06-.03.07-.03h.08l.08-.01h.2l.1.02.12.02.1.02.13.04 2.48.77.12.05.2.12.08.06.07.07.06.08.04.07.04.08.06.16.01.1.02.16v.1l-.02.16-.01.07-.01.08-.01.07v.07l-.01.06-.02.06-.01.05-.1.4-.1.38-.1.38-.22.74-.12.36-.12.35-.13.34-.12.34-.13.32-.12.3-.13.3-.13.3-.12.28-.12.27-.12.26-.12.24-.1.23-.2.42-.1.2-.1.17-.08.15-.07.14 3.87 3.64.07.06.05.06.12.12.05.07.05.06.05.07.04.07.04.06.03.08.02.07.02.08v.08.08.1l-.02.1-.03.1-.04.1-.06.1-.06.1-.08.1-.1.12-.1.12-.13.13-1.77 1.78-.07.06-.06.05-.07.05-.2.12-.07.03-.16.04-.16.02h-.17l-.08-.02-.18-.04-.08-.03-.1-.04-.1-.05-.18-.12-.1-.07-.18-.16-3.15-3.16-.12.13-.3.3-.18.16-.2.18-.23.2-.25.2-.28.2-.3.2-.33.2-.35.2-.37.2-.4.2-.42.2-.46.18-.47.18-.5.15-.53.15-.56.12-.58.1-.6.1-.64.07-.67.04-.7.01-.68-.02-.65-.05-.64-.1-.6-.13-.6-.16-.56-.2-.55-.22-.52-.26-.5-.28-.47-.3-.44-.33-.42-.36-.38-.4-.36-.4-.32-.43-.3-.44-.27-.46-.23-.48-.2-.5-.17-.5-.12-.52-.1-.54-.05-.54-.02-.55.03-.7.07-.66.12-.63.17-.6.2-.56.23-.54.26-.5.3-.48.3-.45.32-.42.34-.4.35-.36.35-.34.35-.3.34-.3.34-.25.32-.23.3-.2.3-.18.27-.16.23-.13.2-.1.17-.1.12-.06v-.08l-.9-.97-.42-.44-.2-.23-.38-.46-.36-.46-.17-.24-.16-.24-.15-.24-.15-.25-.26-.5-.22-.52-.1-.27-.16-.56-.06-.28-.05-.3-.04-.3-.02-.3-.01-.3v-.32l.02-.42.04-.4.07-.42.1-.42.13-.42.16-.4.18-.4.2-.4.25-.38.27-.37.3-.36.33-.35.36-.32.38-.3.4-.3.44-.26.47-.24.5-.22.53-.18.55-.16.58-.12.6-.1.64-.05.66-.02.6.02.58.04zm-4.3 17.96l-.97 1.02-.76 1.4-.3 1.85.23 1.4.64 1.15.98.85 1.24.55 1.44.18 1.76-.2 1.4-.48 1.1-.65.8-.68.52-.58-6.46-6.87-.66.38-.94.67zm.6-13.1l-.64.93-.22 1.1.14 1.06.47.94.74.9.9.97.97.97.8-.5 1.22-.92 1.12-1.33.5-1.78-.26-1.18-.74-1.04-1.15-.73-1.5-.28-1.36.24-1 .64z" id="L"/><path d="M435.52 186.2l.62.1.6.14.6.18.57.22.56.25.53.28.52.32.5.35.47.38.44.4.4.43.4.46.36.48.33.5.3.53.26.54.22.57.2.58.14.6.1.62.07.63v.64.5l-.04.48-.06.48-.1.46-.12.46-.14.44-.16.44-.2.43-.2.4-.23.4-.26.4-.27.38-.3.37-.3.35-.33.34-.35.33-.36.3-.38.3-.4.28-.4.27-.43.25-.43.24-.45.2-.46.2 5.94 11.07.03.07v.07l.02.08.02.14v.08l-.02.14-.02.07-.03.07-.06.12-.04.06-.05.06-.05.05-.12.08-.07.04-.07.03-.07.02h-.08l-.18.02h-4.57l-.05-.01h-.04l-.05-.01h-.08l-.04-.02-.04-.01-.04-.02-.03-.02-.03-.01h-.04l-.02-.03-.06-.04-.02-.02-.03-.02-.02-.03-.02-.02v-.02h-.02l-.01-.03-.02-.02-5.74-11.5h-4.77v11.04l-.03.15v.05l-.02.04-.03.05-.02.05-.06.08-.08.08-.03.04-.04.03-.05.04-.04.03-.05.02-.04.03-.05.02h-.05l-.05.02-.05.01h-.05l-.05.01h-3.96l-.06-.01h-.06l-.05-.01-.06-.02h-.05l-.05-.02-.05-.03-.05-.02-.04-.03-.04-.04-.04-.03-.04-.04-.12-.16-.04-.1-.02-.04-.04-.2v-28.66l.02-.06.02-.07.03-.06.02-.05.02-.06.03-.05.02-.05.03-.05.06-.08.02-.04.1-.1.03-.02.03-.03h.04l.03-.02.04-.01.03-.01.08-.02h.04l.04-.01h12.36l.64.03.63.06zm-8.7 13.65h7.03l1.13-.56.97-.6.78-.6.6-.62.44-.65.26-.66.1-.68-.12-.95-.33-.87-.52-.8-.68-.65-.8-.5-.9-.32-.95-.1h-7.03v8.56z" id="M"/><path d="M465.04 186.12h17.62c.48 0 .8.4.8.8v3.56c0 .4-.32.8-.8.8H469.9v7.1h10.67c.4 0 .8.4.8.8v3.56c0 .5-.4.8-.8.8H469.9v7.6h12.77c.48 0 .8.4.8.8v3.56c0 .4-.32.8-.8.8h-17.62a.82.82 0 0 1-.81-.81v-28.6c.22-.54.5-.8.8-.8z" id="N"/><path d="M504.64 186.12h4.04c.48 0 .8.4.8.8v11.48h14.07v-11.48c0-.4.32-.8.8-.8h3.96c.4 0 .8.4.8.8v28.6c0 .4-.4.8-.8.8h-3.96c-.48 0-.8-.4-.8-.8v-11.96h-14.07v11.96c0 .4-.32.8-.8.8h-4.04c-.4 0-.8-.4-.8-.8v-28.6c.27-.54.54-.8.8-.8z" id="O"/><path d="M562.05 185.65h.05l.05.02.05.01.05.02.04.02.05.02.04.02.03.03.04.03.1.1.03.04.02.03v.04l.02.03.01.04.02.03 13.36 29.18.03.08.01.1.01.08v.08l-.01.08-.01.07-.03.08-.02.07-.08.12-.05.06-.12.1-.07.04-.07.03-.08.03-.08.02-.1.01-.1.01h-3.8l-.1-.01h-.1l-.1-.01-.08-.01-.07-.02-.08-.02-.14-.06-.18-.12-.06-.05-.06-.06-.1-.12-.05-.07-.1-.16-.1-.18-2.1-4.7h-12.93l-2.13 4.75-.06.12-.04.06-.04.07-.04.06-.05.06-.06.05-.05.06-.06.05-.14.1-.07.04-.08.04-.1.03-.08.03-.1.03-.1.01-.1.01-.1.01h-3.8l-.12-.02-.06-.02-.06-.03-.05-.03-.06-.04-.05-.05-.04-.05-.05-.06-.04-.06-.03-.06-.03-.07-.02-.08-.02-.07-.01-.08v-.08l.01-.08.01-.1.02-.08.03-.1 13.42-29.1.02-.03.03-.04.02-.03.03-.04.02-.03.03-.04.15-.15.16-.08.05-.01.05-.02h.05l.06-.01h.52l.06.01zm-4.57 20.43h8.65l-4.36-9.53h-.08l-4.2 9.53z" id="P"/><path d="M606.67 186.24l.76.13.73.2.7.24.67.3.64.33.6.37.56.42.52.45.47.5.43.52.37.56.33.58.27.62.22.64.15.66.1.7.03.7v.52l-.07.5-.1.5-.14.47-.18.46-.2.45-.23.43-.26.4-.28.4-.3.37-.32.35-.32.34-.33.3-.34.3-.35.26-.34.25-.34.2-.33.2-.33.16.37.13.38.16.4.18.4.2.4.23.4.27.4.28.4.32.37.34.36.37.33.4.32.42.28.46.25.47.2.5.17.53.13.56.08.58.03.6-.03.76-.1.73-.17.7-.22.67-.28.65-.34.6-.4.58-.44.54-.5.5-.54.47-.58.42-.62.4-.66.33-.7.3-.72.24-.76.2-.78.14-.8.1-.83.03h-10.43l-.07-.01-.08-.01-.06-.01-.07-.02-.12-.06-.06-.04-.1-.08-.05-.05-.04-.05-.03-.06-.03-.05-.03-.06-.06-.18v-.07l-.01-.06v-28.6l.06-.16.1-.2.03-.06.04-.05.03-.06.16-.16.04-.03.04-.02.05-.02.04-.02.05-.01h.05l.05-.01h9.94l.8.03.78.1zm-6.84 24.93h5.25l1.4-.67 1.08-.72.78-.78.46-.83.16-.87-.25-1.24-.66-1.04-1-.8-1.2-.53-1.33-.18h-4.7v7.67zm.08-12.28h4.6l1.33-.73 1.04-.76.75-.8.44-.82.15-.86-.17-1.2-.5-1-.78-.76-1.03-.5-1.22-.16h-4.6v7.6z" id="Q"/><path d="M318.3 57.4l7.36-10.02-12.12-16.33-57.7-.08 62.46 84.37 7.36-10.02-46.23-62.4h28.13L318.3 57.4z" id="R"/><path d="M330.9 74.53l45.82 61.9h-28.04l-10.35-13.98-7.43 10.02 11.8 15.84 57.6.08-61.98-83.88-7.43 10.02z" id="S"/><path d="M307.87 136.43h-28.04l24.4-32.97-7.43-10.02-40.57 54.87h57.7l33.13-44.85-7.35-10.02-31.84 43z" id="T"/><path d="M309.48 76.4l7.44 9.94L349 42.93h28.04L352.3 76.4l7.44 9.94 40.9-55.28h-57.62L309.48 76.4z" id="U"/></defs><use xlink:href="#A" class="E"/><use xlink:href="#A" class="B C D"/><use xlink:href="#B" class="E"/><use xlink:href="#B" class="B C D"/><use xlink:href="#C" class="E"/><use xlink:href="#C" class="B C D"/><use xlink:href="#D" class="E"/><use xlink:href="#D" class="B C D"/><use xlink:href="#E"/><use xlink:href="#E" class="B C D"/><use xlink:href="#F"/><use xlink:href="#F" class="B C D"/><use xlink:href="#G"/><use xlink:href="#G" class="B C D"/><use xlink:href="#H"/><use xlink:href="#H" class="B C D"/><use xlink:href="#I"/><use xlink:href="#I" class="B C D"/><use xlink:href="#J"/><use xlink:href="#J" class="B C D"/><use xlink:href="#K"/><use xlink:href="#K" class="B C D"/><use xlink:href="#L"/><use xlink:href="#L" class="B C D"/><use xlink:href="#M"/><use xlink:href="#M" class="B C D"/><use xlink:href="#N"/><use xlink:href="#N" class="B C D"/><use xlink:href="#O"/><use xlink:href="#O" class="B C D"/><use xlink:href="#P"/><use xlink:href="#P" class="B C D"/><use xlink:href="#Q"/><use xlink:href="#Q" class="B C D"/><use xlink:href="#R" class="E"/><use xlink:href="#R" class="B C D"/><use xlink:href="#S" fill="#ff4438"/><use xlink:href="#S" class="B C D"/><use xlink:href="#T"/><use xlink:href="#T" class="B C D"/><use xlink:href="#U" fill="#898a8d"/><use xlink:href="#U" class="B C D"/></svg>